<?xml version="1.0" standalone="no"?>
<!DOCTYPE svg PUBLIC "-//W3C//DTD SVG 20010904//EN"
 "http://www.w3.org/TR/2001/REC-SVG-20010904/DTD/svg10.dtd">
<svg version="1.0" xmlns="http://www.w3.org/2000/svg"
 width="32.000000pt" height="32.000000pt" viewBox="0 0 32.000000 32.000000"
 preserveAspectRatio="xMidYMid meet">
<metadata>
Created by potrace 1.16, written by Peter Selinger 2001-2019
</metadata>
<g transform="translate(0.000000,32.000000) scale(0.003125,-0.003125)"
fill="#6c757d" stroke="none">
<path d="M7004 9821 l195 -390 -81 -46 c-78 -45 -80 -48 -62 -65 11 -9 183
-152 384 -316 484 -395 475 -387 453 -395 -10 -3 -268 -64 -574 -134 l-557
-129 -93 -290 c-51 -160 -170 -536 -264 -835 l-172 -545 134 -534 c74 -294
132 -537 129 -539 -4 -4 -1399 -82 -1478 -83 -18 0 -192 -158 -1138 -1036
-322 -299 -586 -552 -587 -561 -1 -10 -59 -202 -129 -428 -70 -225 -131 -426
-137 -445 l-10 -35 -999 -149 c-549 -82 -1001 -147 -1003 -144 -3 3 -41 81
-84 174 -109 235 -189 393 -218 432 -13 18 -42 83 -64 145 -22 61 -70 195
-106 297 -36 102 -69 189 -73 193 -4 5 -79 2 -166 -7 -88 -9 -173 -17 -189
-18 l-31 -2 -43 -915 c-46 -964 -48 -1096 -16 -1321 123 -873 545 -1392 1286
-1584 215 -56 389 -79 679 -91 126 -6 629 27 3905 249 2068 141 3768 259 3777
262 13 4 15 10 9 27 -6 14 97 1402 275 3732 l285 3710 -4 290 c-5 310 -11 369
-67 602 -77 322 -206 558 -425 779 -251 253 -541 399 -1000 506 l-100 23 -918
3 -917 3 194 -390z"/>
<path d="M5490 9973 c-924 -95 -2171 -809 -3253 -1863 -1070 -1042 -1797
-2303 -1872 -3245 l-7 -80 583 -565 583 -565 76 2 c90 2 292 42 450 90 796
240 1749 848 2636 1681 1075 1009 1842 2226 1999 3172 22 131 30 375 16 486
-33 269 -116 449 -287 620 -92 94 -110 106 -215 157 -174 85 -333 118 -552
115 -67 0 -138 -3 -157 -5z"/>
</g>
</svg>
